<?xml version="1.0" encoding="UTF-8" standalone="no"?>
<!DOCTYPE svg PUBLIC "-//W3C//DTD SVG 1.1//EN"
 "http://www.w3.org/Graphics/SVG/1.1/DTD/svg11.dtd">
<!-- Generated by graphviz version 2.36.0 (20140111.2315)
 -->
<!-- Title: G Pages: 1 -->
<svg width="1148pt" height="672pt"
 viewBox="0.00 0.00 1148.00 672.00" xmlns="http://www.w3.org/2000/svg" xmlns:xlink="http://www.w3.org/1999/xlink">
<g id="graph0" class="graph" transform="scale(1 1) rotate(0) translate(4 668)">
<title>G</title>
<polygon fill="white" stroke="none" points="-4,4 -4,-668 1144,-668 1144,4 -4,4"/>
<g id="clust1" class="cluster"><title>cluster_Global</title>
<path fill="none" stroke="gray" d="M408,-98C408,-98 1120,-98 1120,-98 1126,-98 1132,-104 1132,-110 1132,-110 1132,-644 1132,-644 1132,-650 1126,-656 1120,-656 1120,-656 408,-656 408,-656 402,-656 396,-650 396,-644 396,-644 396,-110 396,-110 396,-104 402,-98 408,-98"/>
<text text-anchor="middle" x="764" y="-643.2" font-family="Times,serif" font-size="11.00" fill="gray">Global</text>
</g>
<!-- \\EnergyStatCSVImportColumn -->
<g id="node1" class="node"><title>\\EnergyStatCSVImportColumn</title>
<polygon fill="none" stroke="black" points="1115.5,-628 964.5,-628 964.5,-592 1115.5,-592 1115.5,-628"/>
<text text-anchor="middle" x="1040" y="-607.2" font-family="Times,serif" font-size="11.00">EnergyStatCSVImportColumn</text>
</g>
<!-- \\EnergyStatCSVImport -->
<g id="node2" class="node"><title>\\EnergyStatCSVImport</title>
<polygon fill="none" stroke="black" points="1098,-358 982,-358 982,-322 1098,-322 1098,-358"/>
<text text-anchor="middle" x="1040" y="-337.2" font-family="Times,serif" font-size="11.00">EnergyStatCSVImport</text>
</g>
<!-- \\Illuminate\\Console\\Command -->
<g id="node15" class="node"><title>\\Illuminate\\Console\\Command</title>
<ellipse fill="none" stroke="black" cx="720" cy="-72" rx="120.779" ry="18"/>
<text text-anchor="middle" x="720" y="-68.3" font-family="Times,serif" font-size="14.00" fill="gray">\Illuminate\Console\Command</text>
</g>
<!-- \\EnergyStatCSVImport&#45;&gt;\\Illuminate\\Console\\Command -->
<g id="edge1" class="edge"><title>\\EnergyStatCSVImport&#45;&gt;\\Illuminate\\Console\\Command</title>
<path fill="none" stroke="black" d="M981.837,-329.301C972.302,-325.433 963.19,-320.168 956,-313 883.437,-240.664 962.782,-159.508 884,-94 874.211,-85.8607 862.889,-79.8891 850.863,-75.577"/>
<polygon fill="none" stroke="black" points="851.675,-72.1623 841.084,-72.4649 849.552,-78.8327 851.675,-72.1623"/>
</g>
<!-- \\HomeController -->
<g id="node3" class="node"><title>\\HomeController</title>
<polygon fill="none" stroke="black" points="1084.5,-466 995.5,-466 995.5,-430 1084.5,-430 1084.5,-466"/>
<text text-anchor="middle" x="1040" y="-445.2" font-family="Times,serif" font-size="11.00">HomeController</text>
</g>
<!-- \\BaseController -->
<g id="node5" class="node"><title>\\BaseController</title>
<polygon fill="none" stroke="black" points="762,-412 678,-412 678,-376 762,-376 762,-412"/>
<text text-anchor="middle" x="720" y="-391.2" font-family="Times,serif" font-size="11.00">BaseController</text>
</g>
<!-- \\HomeController&#45;&gt;\\BaseController -->
<g id="edge2" class="edge"><title>\\HomeController&#45;&gt;\\BaseController</title>
<path fill="none" stroke="black" d="M995.45,-440.605C937.121,-430.7 833.816,-413.157 771.944,-402.651"/>
<polygon fill="none" stroke="black" points="772.456,-399.188 762.011,-400.964 771.284,-406.089 772.456,-399.188"/>
</g>
<!-- \\EnergyStatController -->
<g id="node4" class="node"><title>\\EnergyStatController</title>
<polygon fill="none" stroke="black" points="1095,-412 985,-412 985,-376 1095,-376 1095,-412"/>
<text text-anchor="middle" x="1040" y="-391.2" font-family="Times,serif" font-size="11.00">EnergyStatController</text>
</g>
<!-- \\EnergyStatController&#45;&gt;\\BaseController -->
<g id="edge3" class="edge"><title>\\EnergyStatController&#45;&gt;\\BaseController</title>
<path fill="none" stroke="black" d="M984.695,-394C925.288,-394 830.779,-394 772.504,-394"/>
<polygon fill="none" stroke="black" points="772.414,-390.5 762.414,-394 772.414,-397.5 772.414,-390.5"/>
</g>
<!-- \\Controller -->
<g id="node16" class="node"><title>\\Controller</title>
<ellipse fill="none" stroke="black" cx="434" cy="-72" rx="49.2915" ry="18"/>
<text text-anchor="middle" x="434" y="-68.3" font-family="Times,serif" font-size="14.00" fill="gray">\Controller</text>
</g>
<!-- \\BaseController&#45;&gt;\\Controller -->
<g id="edge4" class="edge"><title>\\BaseController&#45;&gt;\\Controller</title>
<path fill="none" stroke="black" d="M709.156,-375.996C680.613,-325.252 592.883,-179.232 484,-94 482.18,-92.5756 480.254,-91.2208 478.258,-89.9355"/>
<polygon fill="none" stroke="black" points="479.601,-86.6716 469.183,-84.7449 476.126,-92.7479 479.601,-86.6716"/>
</g>
<!-- \\CreateMcHrDeptTable -->
<g id="node6" class="node"><title>\\CreateMcHrDeptTable</title>
<polygon fill="none" stroke="black" points="1100.5,-196 979.5,-196 979.5,-160 1100.5,-160 1100.5,-196"/>
<text text-anchor="middle" x="1040" y="-175.2" font-family="Times,serif" font-size="11.00">CreateMcHrDeptTable</text>
</g>
<!-- \\Illuminate\\Database\\Migrations\\Migration -->
<g id="node17" class="node"><title>\\Illuminate\\Database\\Migrations\\Migration</title>
<ellipse fill="none" stroke="black" cx="720" cy="-18" rx="163.571" ry="18"/>
<text text-anchor="middle" x="720" y="-14.3" font-family="Times,serif" font-size="14.00" fill="gray">\Illuminate\Database\Migrations\Migration</text>
</g>
<!-- \\CreateMcHrDeptTable&#45;&gt;\\Illuminate\\Database\\Migrations\\Migration -->
<g id="edge5" class="edge"><title>\\CreateMcHrDeptTable&#45;&gt;\\Illuminate\\Database\\Migrations\\Migration</title>
<path fill="none" stroke="black" d="M979.461,-164.004C971.13,-160.552 963.027,-156.279 956,-151 910.467,-116.792 931.974,-75.6918 884,-45 876.281,-40.0618 867.951,-35.9356 859.281,-32.4957"/>
<polygon fill="none" stroke="black" points="860.348,-29.1593 849.754,-29.0264 857.953,-35.7368 860.348,-29.1593"/>
</g>
<!-- \\CreateMcCourthouseTable -->
<g id="node7" class="node"><title>\\CreateMcCourthouseTable</title>
<polygon fill="none" stroke="black" points="1108.5,-142 971.5,-142 971.5,-106 1108.5,-106 1108.5,-142"/>
<text text-anchor="middle" x="1040" y="-121.2" font-family="Times,serif" font-size="11.00">CreateMcCourthouseTable</text>
</g>
<!-- \\CreateMcCourthouseTable&#45;&gt;\\Illuminate\\Database\\Migrations\\Migration -->
<g id="edge6" class="edge"><title>\\CreateMcCourthouseTable&#45;&gt;\\Illuminate\\Database\\Migrations\\Migration</title>
<path fill="none" stroke="black" d="M1010.17,-105.883C979.897,-87.6922 930.336,-60.2401 884,-45 870.163,-40.449 855.402,-36.6411 840.627,-33.4606"/>
<polygon fill="none" stroke="black" points="840.908,-29.9451 830.408,-31.3575 839.497,-36.8014 840.908,-29.9451"/>
</g>
<!-- \\CreateMcFleetMaintenanceTable -->
<g id="node8" class="node"><title>\\CreateMcFleetMaintenanceTable</title>
<polygon fill="none" stroke="black" points="1123.5,-304 956.5,-304 956.5,-268 1123.5,-268 1123.5,-304"/>
<text text-anchor="middle" x="1040" y="-283.2" font-family="Times,serif" font-size="11.00">CreateMcFleetMaintenanceTable</text>
</g>
<!-- \\CreateMcFleetMaintenanceTable&#45;&gt;\\Illuminate\\Database\\Migrations\\Migration -->
<g id="edge7" class="edge"><title>\\CreateMcFleetMaintenanceTable&#45;&gt;\\Illuminate\\Database\\Migrations\\Migration</title>
<path fill="none" stroke="black" d="M967.481,-267.996C963.327,-265.392 959.446,-262.411 956,-259 884.686,-188.399 960.415,-110.045 884,-45 878.294,-40.1427 872.054,-35.9955 865.451,-32.4642"/>
<polygon fill="none" stroke="black" points="866.763,-29.2114 856.235,-28.0217 863.723,-35.517 866.763,-29.2114"/>
</g>
<!-- \\CreateMcWorkforceTable -->
<g id="node9" class="node"><title>\\CreateMcWorkforceTable</title>
<polygon fill="none" stroke="black" points="1107.5,-250 972.5,-250 972.5,-214 1107.5,-214 1107.5,-250"/>
<text text-anchor="middle" x="1040" y="-229.2" font-family="Times,serif" font-size="11.00">CreateMcWorkforceTable</text>
</g>
<!-- \\CreateMcWorkforceTable&#45;&gt;\\Illuminate\\Database\\Migrations\\Migration -->
<g id="edge8" class="edge"><title>\\CreateMcWorkforceTable&#45;&gt;\\Illuminate\\Database\\Migrations\\Migration</title>
<path fill="none" stroke="black" d="M972.311,-216.066C966.413,-213.002 960.85,-209.351 956,-205 897.955,-152.927 945.792,-92.5667 884,-45 877.687,-40.1405 870.826,-36.0175 863.609,-32.5286"/>
<polygon fill="none" stroke="black" points="864.855,-29.2536 854.292,-28.4407 862.043,-35.6637 864.855,-29.2536"/>
</g>
<!-- \\EnergyStatCSVImportTest -->
<g id="node10" class="node"><title>\\EnergyStatCSVImportTest</title>
<polygon fill="none" stroke="black" points="1108,-574 972,-574 972,-538 1108,-538 1108,-574"/>
<text text-anchor="middle" x="1040" y="-553.2" font-family="Times,serif" font-size="11.00">EnergyStatCSVImportTest</text>
</g>
<!-- \\DatabaseTestCase -->
<g id="node13" class="node"><title>\\DatabaseTestCase</title>
<polygon fill="none" stroke="black" points="770.5,-547 669.5,-547 669.5,-511 770.5,-511 770.5,-547"/>
<text text-anchor="middle" x="720" y="-526.2" font-family="Times,serif" font-size="11.00">DatabaseTestCase</text>
</g>
<!-- \\EnergyStatCSVImportTest&#45;&gt;\\DatabaseTestCase -->
<g id="edge9" class="edge"><title>\\EnergyStatCSVImportTest&#45;&gt;\\DatabaseTestCase</title>
<path fill="none" stroke="black" d="M971.949,-550.307C915.457,-545.51 835.37,-538.711 780.974,-534.092"/>
<polygon fill="none" stroke="black" points="781.05,-530.586 770.79,-533.227 780.458,-537.561 781.05,-530.586"/>
</g>
<!-- \\EnergyStatControllerTest -->
<g id="node11" class="node"><title>\\EnergyStatControllerTest</title>
<polygon fill="none" stroke="black" points="1105,-520 975,-520 975,-484 1105,-484 1105,-520"/>
<text text-anchor="middle" x="1040" y="-499.2" font-family="Times,serif" font-size="11.00">EnergyStatControllerTest</text>
</g>
<!-- \\EnergyStatControllerTest&#45;&gt;\\DatabaseTestCase -->
<g id="edge10" class="edge"><title>\\EnergyStatControllerTest&#45;&gt;\\DatabaseTestCase</title>
<path fill="none" stroke="black" d="M974.648,-507.464C917.925,-512.28 835.935,-519.241 780.663,-523.934"/>
<polygon fill="none" stroke="black" points="780.334,-520.45 770.666,-524.783 780.926,-527.424 780.334,-520.45"/>
</g>
<!-- \\TestCase -->
<g id="node12" class="node"><title>\\TestCase</title>
<polygon fill="none" stroke="black" points="463.5,-574 404.5,-574 404.5,-538 463.5,-538 463.5,-574"/>
<text text-anchor="middle" x="434" y="-553.2" font-family="Times,serif" font-size="11.00">TestCase</text>
</g>
<!-- \\Illuminate\\Foundation\\Testing\\TestCase -->
<g id="node18" class="node"><title>\\Illuminate\\Foundation\\Testing\\TestCase</title>
<ellipse fill="none" stroke="black" cx="156" cy="-556" rx="155.173" ry="18"/>
<text text-anchor="middle" x="156" y="-552.3" font-family="Times,serif" font-size="14.00" fill="gray">\Illuminate\Foundation\Testing\TestCase</text>
</g>
<!-- \\TestCase&#45;&gt;\\Illuminate\\Foundation\\Testing\\TestCase -->
<g id="edge11" class="edge"><title>\\TestCase&#45;&gt;\\Illuminate\\Foundation\\Testing\\TestCase</title>
<path fill="none" stroke="black" d="M404.244,-556C383.501,-556 353.642,-556 321.804,-556"/>
<polygon fill="none" stroke="black" points="321.406,-552.5 311.406,-556 321.406,-559.5 321.406,-552.5"/>
</g>
<!-- \\DatabaseTestCase&#45;&gt;\\TestCase -->
<g id="edge12" class="edge"><title>\\DatabaseTestCase&#45;&gt;\\TestCase</title>
<path fill="none" stroke="black" d="M669.206,-533.734C613.512,-539.029 524.478,-547.493 473.739,-552.317"/>
<polygon fill="none" stroke="black" points="473.142,-548.858 463.519,-553.289 473.805,-555.826 473.142,-548.858"/>
</g>
<!-- \\ExampleTest -->
<g id="node14" class="node"><title>\\ExampleTest</title>
<polygon fill="none" stroke="black" points="757.5,-601 682.5,-601 682.5,-565 757.5,-565 757.5,-601"/>
<text text-anchor="middle" x="720" y="-580.2" font-family="Times,serif" font-size="11.00">ExampleTest</text>
</g>
<!-- \\ExampleTest&#45;&gt;\\TestCase -->
<g id="edge13" class="edge"><title>\\ExampleTest&#45;&gt;\\TestCase</title>
<path fill="none" stroke="black" d="M682.453,-579.525C628.69,-574.414 528.723,-564.91 473.736,-559.683"/>
<polygon fill="none" stroke="black" points="473.976,-556.19 463.689,-558.728 473.313,-563.158 473.976,-556.19"/>
</g>
</g>
</svg>
